<?xml version="1.0" encoding="utf-8"?>
<!-- Generator: Adobe Illustrator 25.2.1, SVG Export Plug-In . SVG Version: 6.00 Build 0)  -->
<svg version="1.1" id="Layer_1" xmlns="http://www.w3.org/2000/svg" xmlns:xlink="http://www.w3.org/1999/xlink" x="0px" y="0px"
	 viewBox="0 0 34 17" style="enable-background:new 0 0 34 17;" xml:space="preserve">
<style type="text/css">
	.st0{fill:#202020;}
	.st1{fill:#45A582;}
</style>
<path class="st0" d="M15.4,14.2L13,11.8c0.8-1.1,1.3-2.5,1.3-3.9c0-3.7-3-6.7-6.7-6.7s-6.7,3-6.7,6.7s3,6.7,6.7,6.7
	c1.5,0,2.8-0.5,3.9-1.3l2.4,2.4c0.2,0.2,0.5,0.3,0.7,0.3s0.5-0.1,0.7-0.3C15.8,15.2,15.8,14.6,15.4,14.2z M2.9,7.8
	c0-2.6,2.1-4.7,4.7-4.7s4.7,2.1,4.7,4.7c0,1.3-0.5,2.4-1.4,3.3l0,0l0,0c-0.8,0.8-2,1.4-3.3,1.4C5,12.5,2.9,10.4,2.9,7.8z"/>
<path class="st1" d="M32.7,14.2l-2.4-2.4c0.8-1.1,1.3-2.5,1.3-3.9c0-3.7-3-6.7-6.7-6.7s-6.7,3-6.7,6.7s3,6.7,6.7,6.7
	c1.5,0,2.8-0.5,3.9-1.3l2.4,2.4c0.2,0.2,0.5,0.3,0.7,0.3s0.5-0.1,0.7-0.3C33.1,15.2,33.1,14.6,32.7,14.2z M20.2,7.8
	c0-2.6,2.1-4.7,4.7-4.7s4.7,2.1,4.7,4.7c0,1.3-0.5,2.4-1.4,3.3l0,0l0,0c-0.8,0.8-2,1.4-3.3,1.4C22.3,12.5,20.2,10.4,20.2,7.8z"/>
</svg>
